<svg width="110" height="103" viewBox="0 0 110 103" fill="none" xmlns="http://www.w3.org/2000/svg">
<path d="M21.9395 0V103H28.8677V0H21.9395ZM17.7825 4.46872L0 17.0666V22.1473L17.7825 9.56099V4.46872ZM33.0247 4.46872V9.56099L107.573 62.3543H109.928V58.9594L33.0247 4.46872ZM17.7825 13.2999L0 29.9762V35.6805L17.7825 19.0065V13.2999ZM33.0247 13.2999V19.0065L79.2592 62.3543H85.356L33.0247 13.2999ZM33.0247 24.8031V32.7475L51.246 62.3543H56.1419L33.0247 24.8031ZM17.7825 24.8262L0 53.717V61.6383L17.7825 32.7475V24.8262ZM0 66.5112V73.4395H17.7825V66.5112H0ZM33.0247 66.5112V73.4395H109.928V66.5112H33.0247Z" fill="white"/>
</svg>
